avconv version 9.18-6:9.18-0ubuntu0.14.04.1+fdkaac, Copyright (c) 2000-2014 the Libav developers
  built on Apr 10 2015 23:18:58 with gcc 4.8 (Ubuntu 4.8.2-19ubuntu1)
Input #0, image2, from 'imagenes/Cubo%02d.png':
  Duration: 00:00:04.00, start: 0.000000, bitrate: N/A
    Stream #0.0: Video: png, rgb24, 320x240, 25 fps, 25 tbr, 25 tbn
Output #0, avi, to 'cub_mjpeg.avi':
  Metadata:
    ISFT            : Lavf54.20.4
    Stream #0.0: Video: mjpeg, yuvj420p, 320x240, q=2-31, 200 kb/s, 25 tbn, 25 tbc
Stream mapping:
  Stream #0:0 -> #0:0 (png -> mjpeg)
Press ctrl-c to stop encoding
frame=  100 fps=  0 q=24.8 Lsize=     451kB time=4.00 bitrate= 923.7kbits/s    
video:443kB audio:0kB global headers:0kB muxing overhead 1.791909%
bench: utime=0.229s maxrss=17064kB
